<?xml version="1.0" encoding="utf-8"?>
<!-- Generator: Adobe Illustrator 21.0.2, SVG Export Plug-In . SVG Version: 6.00 Build 0)  -->
<svg version="1.1" id="Layer_1" xmlns="http://www.w3.org/2000/svg" xmlns:xlink="http://www.w3.org/1999/xlink" x="0px" y="0px"
	 viewBox="0 0 191 64" style="enable-background:new 0 0 191 64;" xml:space="preserve">
<style type="text/css">
	.st0{fill:#E73C3E;}
</style>
<g>
	<g>
		<path class="st0" d="M14,44.3c0,6.4,2.8,8.2,7.2,8.2s7.2-1.8,7.2-8.2v-3.8h11v2.4c0,14.2-7.5,19.4-18.2,19.4
			C10.5,62.3,3,57.1,3,42.9V22.3C3,8,10.5,2.9,21.2,2.9C32,2.9,39.5,8,39.5,22.3v0.2h-11v-1.6c0-6.4-2.8-8.2-7.2-8.2
			s-7.2,1.8-7.2,8.2L14,44.3L14,44.3z"/>
		<path class="st0" d="M47.1,61.5V3.7h11v57.8H47.1z"/>
		<path class="st0" d="M66.7,3.7H82c12.6,0,19.7,5.4,20.2,20v17.8c-0.5,14.6-7.5,20-20.2,20H66.7V3.7z M77.7,51.7h3.8
			c6.1,0,9.6-2.9,9.6-11.5V25c0-8.2-2.7-11.5-9.6-11.5h-3.8V51.7z"/>
		<path class="st0" d="M109.2,61.5V3.7h30.2v9.8h-19.2v13.3h14.6v9.8h-14.6v15.2h20v9.8L109.2,61.5L109.2,61.5z"/>
		<path class="st0" d="M173.1,61.5L163.5,38h-5.3v23.5h-11V3.7h16c13.3,0,19.6,6.4,19.6,17.3c0,7.2-2.6,12.4-8.7,14.7L185,61.5
			H173.1z M158.2,28.8h5.7c4.9,0,7.8-2.4,7.8-8s-3-8-7.8-8h-5.7V28.8z"/>
	</g>
</g>
</svg>
