<?xml version="1.0" encoding="utf-8"?>
<!-- Generator: Adobe Illustrator 21.0.2, SVG Export Plug-In . SVG Version: 6.00 Build 0)  -->
<svg version="1.1" id="Layer_1" xmlns="http://www.w3.org/2000/svg" xmlns:xlink="http://www.w3.org/1999/xlink" x="0px" y="0px"
	 viewBox="0 0 226 64" style="enable-background:new 0 0 226 64;" xml:space="preserve">
<style type="text/css">
	.st0{fill:#E73C3E;}
</style>
<g>
	<g>
		<path class="st0" d="M13.6,44.1c0,6.4,2.8,8.2,7.2,8.2c4.4,0,7.2-1.8,7.2-8.2v-3.8h11v2.4C39,56.9,31.5,62,20.8,62
			C10.1,62,2.6,56.9,2.6,42.6V22c0-14.2,7.5-19.4,18.2-19.4C31.5,2.6,39,7.7,39,22v0.2H28v-1.6c0-6.4-2.8-8.2-7.2-8.2
			c-4.4,0-7.2,1.8-7.2,8.2V44.1z"/>
		<path class="st0" d="M46.6,61.2V3.4h11v57.8H46.6z"/>
		<path class="st0" d="M66.2,3.4h15.4c12.6,0,19.7,5.4,20.2,20v17.8c-0.5,14.6-7.5,20-20.2,20H66.2V3.4z M77.3,51.4h3.8
			c6.1,0,9.6-2.9,9.6-11.5V24.7c0-8.2-2.7-11.5-9.6-11.5h-3.8V51.4z"/>
		<path class="st0" d="M108.7,61.2V3.4H139v9.8h-19.2v13.3h14.6v9.8h-14.6v15.2h20v9.8H108.7z"/>
		<path class="st0" d="M172.6,61.2L163,37.7h-5.3v23.5h-11V3.4h16c13.3,0,19.6,6.4,19.6,17.3c0,7.2-2.6,12.4-8.7,14.7l10.9,25.8
			H172.6z M157.8,28.5h5.7c4.9,0,7.8-2.4,7.8-8s-3-8-7.8-8h-5.7V28.5z"/>
		<path class="st0" d="M213.6,19.5c-1.8-5.4-4.2-7.8-8.1-7.8c-3.9,0-6.1,2.4-6.1,6.3c0,8.7,24.6,9.4,24.6,27.4
			c0,9.9-6.8,16.5-18.4,16.5c-9,0-15.9-4.9-18.9-16.2l10.9-2.3c1.3,7,5.3,9.4,8.6,9.4c3.8,0,6.8-2.6,6.8-6.9
			c0-10.9-24.6-11-24.6-27.2c0-9.9,5.9-16.2,17.4-16.2c9.8,0,15.8,5.8,17.8,14L213.6,19.5z"/>
	</g>
</g>
</svg>
