<?xml version="1.0" encoding="utf-8"?>
<!-- Generator: Adobe Illustrator 21.0.2, SVG Export Plug-In . SVG Version: 6.00 Build 0)  -->
<svg version="1.1" id="Layer_1" xmlns="http://www.w3.org/2000/svg" xmlns:xlink="http://www.w3.org/1999/xlink" x="0px" y="0px"
	 viewBox="0 0 42 28" style="enable-background:new 0 0 42 28;" xml:space="preserve">
<style type="text/css">
	.st0{fill:#E73C3E;}
</style>
<path class="st0" d="M38.7,13.7c-3.9-1.4-9.6-6.1-11.3-10.2c-0.1-0.3-0.5-0.4-0.7-0.3c-0.3,0.1-0.4,0.5-0.3,0.7
	c1.6,3.6,5.9,7.6,9.7,9.8H9.5c-0.3,0-0.6,0.3-0.6,0.6c0,0.3,0.3,0.6,0.6,0.6H36c-3.8,2.1-8.1,6.1-9.7,9.8c-0.1,0.3,0,0.6,0.3,0.7
	c0.3,0.1,0.6,0,0.7-0.3c1.8-4.2,7.4-8.8,11.3-10.2l1.5-0.5L38.7,13.7z"/>
</svg>
