<?xml version="1.0" encoding="utf-8"?>
<!-- Generator: Adobe Illustrator 21.0.2, SVG Export Plug-In . SVG Version: 6.00 Build 0)  -->
<svg version="1.1" id="Layer_1" xmlns="http://www.w3.org/2000/svg" xmlns:xlink="http://www.w3.org/1999/xlink" x="0px" y="0px"
	 viewBox="0 0 341.5 64" style="enable-background:new 0 0 341.5 64;" xml:space="preserve">
<style type="text/css">
	.st0{fill:#E7DCC4;}
</style>
<g>
	<g>
		<path class="st0" d="M4.6,61.5V3.7h15.9c13.6,0,20.2,6.4,20.2,17.3c0,10.9-6.6,17.3-20.2,17.3h-4.9v23.2H4.6z M15.6,29.1h5.9
			c5.4,0,8.2-2.7,8.2-8.2c0-5.4-2.7-8.2-8.2-8.2h-5.9V29.1z"/>
		<path class="st0" d="M72.4,61.5l-9.6-23.5h-5.3v23.5h-11V3.7h16C75.7,3.7,82,10.1,82,21c0,7.2-2.6,12.4-8.7,14.7l10.9,25.8H72.4z
			 M57.5,28.8h5.7c4.9,0,7.8-2.4,7.8-8c0-5.6-3-8-7.8-8h-5.7V28.8z"/>
		<path class="st0" d="M88,22.3C88,8,95.5,2.9,106.2,2.9c10.7,0,18.2,5.1,18.2,19.4v20.6c0,14.2-7.5,19.4-18.2,19.4
			C95.5,62.3,88,57.1,88,42.9V22.3z M99,44.3c0,6.4,2.8,8.2,7.2,8.2c4.4,0,7.2-1.8,7.2-8.2V20.8c0-6.4-2.8-8.2-7.2-8.2
			c-4.4,0-7.2,1.8-7.2,8.2V44.3z"/>
		<path class="st0" d="M131.4,3.7h15.4c12.6,0,19.7,5.4,20.2,20v17.8c-0.5,14.6-7.5,20-20.2,20h-15.4V3.7z M142.4,51.7h3.8
			c6.1,0,9.6-2.9,9.6-11.5V25c0-8.2-2.7-11.5-9.6-11.5h-3.8V51.7z"/>
		<path class="st0" d="M185.6,3.7v40.4c0,5.5,2.4,8.4,7.8,8.4c5.4,0,7.8-2.9,7.8-8.4V3.7h11v40.5c0,12.7-7.5,18.1-18.9,18.1
			c-11.4,0-18.8-5.4-18.8-18.1V3.7H185.6z"/>
		<path class="st0" d="M230.8,44.3c0,6.4,2.8,8.2,7.2,8.2s7.2-1.8,7.2-8.2v-3.8h11v2.4c0,14.2-7.5,19.4-18.2,19.4
			s-18.2-5.1-18.2-19.4V22.3c0-14.2,7.5-19.4,18.2-19.4s18.2,5.1,18.2,19.4v0.2h-11v-1.6c0-6.4-2.8-8.2-7.2-8.2s-7.2,1.8-7.2,8.2
			V44.3z"/>
		<path class="st0" d="M296.7,3.7v9.8h-12.9v48h-11v-48h-12.9V3.7H296.7z"/>
		<path class="st0" d="M325.6,19.8c-1.8-5.4-4.2-7.8-8.1-7.8c-3.9,0-6.1,2.4-6.1,6.3c0,8.7,24.6,9.4,24.6,27.4
			c0,9.9-6.8,16.5-18.4,16.5c-9,0-15.9-4.9-18.9-16.2l10.9-2.3c1.3,7,5.3,9.4,8.6,9.4c3.8,0,6.8-2.6,6.8-6.9
			c0-10.9-24.6-11-24.6-27.2c0-9.9,5.9-16.2,17.4-16.2c9.8,0,15.8,5.8,17.8,14L325.6,19.8z"/>
	</g>
</g>
</svg>
