<?xml version="1.0" encoding="utf-8"?>
<!-- Generator: Adobe Illustrator 21.0.2, SVG Export Plug-In . SVG Version: 6.00 Build 0)  -->
<svg version="1.1" id="Layer_1" xmlns="http://www.w3.org/2000/svg" xmlns:xlink="http://www.w3.org/1999/xlink" x="0px" y="0px"
	 viewBox="0 0 378 92" style="enable-background:new 0 0 378 92;" xml:space="preserve">
<style type="text/css">
	.st0{fill:#E7DCC4;}
</style>
<g>
	<g>
		<g>
			<g>
				<path class="st0" d="M355.7,67c-4.8,0-10-1-14.7-2.9c-1.2-0.5-1.7-0.9-2-1.3c-0.4,0-0.8-0.1-1.3-0.2c-0.3-0.1-2.7-0.6-2.9-1.6
					c0-0.2,0-0.6,0.5-0.9c1.4-0.9,8.1-7.9,13.2-13.9c4.3-5,10.4-13.4,12.8-16.7c0.1-0.2,0.2-0.3,0.2-0.3c2.8-3.5,7.3-5.4,9.5-5.4
					c0.1,0,0.2,0,0.3,0c1.2,0.1,1.7,1.7,1.6,3.1c-0.1,1.3-0.6,2.2-1.5,2.2c-0.1,0-0.2,0-0.2,0c-0.3-0.1-0.6-0.1-0.9-0.2
					c-0.7-0.2-1.4-0.4-2.1-0.4c-0.8,0-1.4,0.3-1.8,1c-0.7,1.6,1.1,5,2.9,8.2c0.7,1.3,1.4,2.6,2,3.9c3.2,6.8,3.7,12.4,1.6,16.6
					c-2.5,5.1-7.4,8-14.4,8.7C357.7,67,356.7,67,355.7,67L355.7,67z M344.2,58.9c0.3,0.2,0.6,0.4,0.9,0.6c1.3,1,3.4,2.6,8,2.8
					c0.3,0,0.5,0,0.8,0c6.9,0,9.7-4.3,10.8-7.9c1.3-4,0.2-8.4-1.1-13.9c-0.3-1.1-0.5-2.2-0.8-3.4C357.7,44.3,350.2,53.5,344.2,58.9z
					 M359.7,28.9L359.7,28.9c-0.7,0-1.3-0.7-1.5-1.9c-0.5-1.9-2-3.9-9.9-6.2c-5.3-1.5-8.3-4.3-8.5-7.9c-0.2-3.4,1.3-5.5,3.8-7.7
					l0.3-0.2l0.2,0.3c2.5,3.4,5.2,4.4,7.8,5.4c1.3,0.5,2.6,1,3.9,1.7c5.2,3.1,7.2,9.6,4.8,15.9C360.4,28.6,360.1,28.9,359.7,28.9z
					 M209.6,67c-1,0-2-0.1-3-0.3c-2.2-0.5-3.9-1.6-4.9-3.3c-1.4-2.4-1.2-5.3-0.6-7.3c0.8-2.6,5-8.2,7.8-11.9
					c0.4-0.6,0.8-1.1,1.1-1.5c0.9-1.2,1.2-2.2,0.9-2.9c-0.2-0.5-0.9-0.8-1.7-0.8c-0.3,0-0.7,0-1.1,0.1c-2.9,0.8-9.1,5.8-13.9,11.1
					c-3.1,3.4-6.1,7.9-8.8,12.9c-1.1,2.1-2.1,3-3.1,3H178c-0.6,0-0.9-0.3-1.1-0.5c-0.4-0.6-0.2-1.6,0-2.1c0.2-0.3,0.3-0.7,0.6-1.1
					c-4.7,3.6-8.7,4.4-11.4,4.4s-5.2-0.8-6.6-2.2c-3.6-3.3-2.2-8.7-1-11.1c1.4-2.6,6.3-8.8,7.3-9.9c1.2-1.4,1.8-3,1.4-3.9
					c-0.2-0.5-0.6-0.8-1.2-0.8c-0.1,0-0.2,0-0.2,0c-2.5,0-7.8,4.5-11.5,7.8c-5,4.5-8.7,10.3-9.7,12c-1,1.6-2.1,3.7-2.9,5.3
					c-0.8,1.6-1.5,2.2-2.6,2.2h-4.3c-0.8,0-1.2-0.3-1.4-0.6c-0.3-0.5-0.3-1.2,0.1-2c0.2-0.3,0.4-0.7,0.6-1.2c0.4-0.9,1-1.9,1.5-3.1
					c-2.1,1.8-5.9,4.5-8.7,5.8c-2.5,1.2-4.6,1.9-6.8,1.9c-1.1,0-2.3-0.2-3.4-0.6c-3.6-1.3-5.7-5.9-5.6-9c-5,4.4-10.7,8.6-18.1,9.5
					C92.3,67,91.6,67,90.9,67c-6.5,0-11.2-4.3-12.2-11.1c-0.9-6.5,3.4-16,12.2-20.6c3.9-2,7.3-2.5,9.5-2.5c3.3,0,6,1,7,2.4
					c0.6,0.9,3.4,5.7-3.6,11c-3.5,2.7-8.6,4.1-15.1,4.1h-0.8c-0.7,1.6-1.8,6.3,0.3,8.8c1.3,1.5,3.4,1.9,4.9,1.9c2,0,4.2-0.5,6.3-1.5
					c1.9-0.9,8.6-4.4,14.5-12.1c3.6-4.7,5.8-8.6,7-10.6c0.4-0.7,0.6-1.1,0.8-1.4l0.1-0.2c0.7-1,1.2-1.8,2.7-1.8h5.1
					c0.6,0,1.2,0.3,1.5,0.8c0.2,0.4,0.4,1.1-0.2,2.1c-1.2,2.1-10.2,17.4-11.3,19.6c-0.5,1.1-0.7,2.8-0.1,4c0.4,0.7,1.1,1,1.9,1
					c0.3,0,0.7,0,1-0.1c4.2-1,8.6-4.4,14.8-11.2c3.2-3.6,5.3-6.4,6.6-9c1.2-2.3,2.1-4.3,2.4-5.2l0.1-0.1c0.4-0.9,0.8-1.9,2.3-1.9
					h5.6c0.5,0,1,0.3,1.2,0.7c0.3,0.5,0.2,1.2-0.2,1.9c-0.5,0.8-2.3,4.4-3.3,6.5c1.9-1.8,5.4-5,7.6-6.4c2.2-1.4,5.5-3.5,9.9-3.5
					c0.5,0,1,0,1.5,0.1c2.2,0.2,4.1,1.7,5,3.9c1.3,3.2,0.6,7.1-2,10.4c-0.8,1-5.5,7.2-6.9,9.1c-0.8,1.1-1.5,2.8-1.1,3.8
					c0.2,0.5,0.7,0.8,1.5,0.9c0.3,0,0.5,0.1,0.8,0.1c2.7,0,6-1.8,9.5-5.2c4.3-4.2,8.9-10.1,12.1-15.5c3.7-6.2,9.7-16.9,12.9-22.6
					c1.3-2.4,2.2-3.9,2.4-4.3c0.8-1.4,1.4-2.3,2.6-2.3h5.7c0.7,0,1,0.3,1.2,0.6c0.4,0.6,0.2,1.6-0.4,2.8c-0.5,0.9-4.1,6.8-7.9,13.1
					c-2.7,4.4-5.5,9-6.9,11.4c2.6-2,6.7-5.1,10.2-5.9c1.1-0.2,2.1-0.3,3-0.3c3.1,0,5.4,1.3,6.6,3.9c1.5,3.2,0.8,6.8-2,10.9
					c-0.6,0.8-1.2,1.8-1.9,2.7c-2,2.8-4,5.6-4.8,6.9c-0.8,1.3-1,2.4-0.6,3.1c0.3,0.5,0.9,0.7,1.9,0.7c0.4,0,0.7,0,1.2-0.1
					c3.7-0.5,7.7-3.7,14.2-11.4c1.4-4.6,4.5-9.3,8.1-12.1c5.3-4.2,9.9-4.8,12.3-4.8c0.3,0,0.5,0,0.8,0c4.2,0.3,7.2,2,8.4,5.1
					c0.5-1,1.2-2.1,1.6-2.7c0.1-0.2,0.2-0.3,0.3-0.5c0.4-0.6,0.9-1.2,2.8-1.2h4.6c0.5,0,0.9,0.2,1.2,0.6c0.4,0.7,0.3,1.7-0.2,2.9
					c-0.5,0.9-2.9,5.5-5.3,9.9s-4.8,8.9-5.3,9.8c-0.5,1.1-0.7,2.7-0.1,3.7c0.3,0.5,0.8,0.7,1.4,0.7c2.6-0.1,5-1.7,8.6-6.1
					c3.5-4.2,11.7-16.5,12.9-18.6c-0.2-0.6-1-3.1-0.2-5.3c0.9-2.4,3.4-4.4,5.5-4.4c0.4,0,0.9,0.1,1.3,0.3c0.7,0.3,1.2,1,1.5,1.9
					c0.4,1.5,0.1,3.3-0.5,4.5c0.1,0,0.2,0,0.4,0c1,0,2.4-0.2,3.8-0.3c1.3-0.1,2.6-0.3,3.4-0.3h0.1c1.7,0,6.1,0.1,6.8,4.1
					c0.6,3.9-2.9,8.7-6.6,13.2c-1.5,1.9-6.2,7.6-5.2,9.9c0.2,0.6,0.8,0.9,1.8,1c0.2,0,0.4,0,0.7,0c5.5,0,12.6-7,17.5-13.6
					c2.4-3.5,5.7-8.2,6.9-10.6h-1.9c-0.8,0-1.5-0.4-1.9-1c-0.4-0.5-0.4-1.2-0.2-1.7c0.5-1.2,2.2-1.4,2.8-1.4h3.7
					c0.6-1,3.6-6.4,4.1-7.2c0.5-1,1.5-2.8,2.9-2.8h5.8c0.6,0,1.1,0.2,1.3,0.7c0.3,0.5,0.2,1.3-0.2,2c-0.4,0.7-3.3,5.8-4.2,7.4h6.4
					c0.8,0,1.5,0.3,1.9,0.9c0.3,0.5,0.3,1.1,0.1,1.5c-0.6,1.1-1.7,1.6-3.4,1.6H326c-0.8,1.4-6.7,11.2-7.9,13.3
					c-1.5,2.5-4.2,7-2.8,9.5c0.6,1,1.5,1.5,2.8,1.5c2,0,4.5-1.2,6.1-2.3c2.8-1.8,6.6-4.4,8.2-6.9c1.2-1.9,2.1-2.7,3-2.7
					c0.2,0,0.5,0.1,0.7,0.2c0.4,0.2,0.7,0.6,0.9,1.1c0.3,0.9,0.2,2.1-0.3,3.1c-0.9,1.9-5.3,6.1-10.3,9.9c-3.8,2.9-7.7,3.5-10.3,3.5
					c-1.8,0-3.5-0.3-4.9-0.9c-3-1.2-5-4.3-5.6-7c-6.1,5.2-11.4,7.9-15.9,7.9c-0.8,0-1.5-0.1-2.2-0.3c-5-1.2-6.9-6.2-6.2-10.6
					c0.7-4.6,5.3-10.3,7.5-13.1l0.5-0.6c0.2-0.3,0.5-0.6,0.7-0.9c0.9-1.1,2.1-2.5,2-3.2c0-0.1-0.1-0.2-0.2-0.3
					c-0.4-0.3-1.1-0.4-2-0.4s-1.9,0.1-2.9,0.2c-1,0.1-2.1,0.2-3,0.2c-0.1,0-0.2,0-0.4,0c-0.7,1.1-1.4,2.3-2.3,3.6
					C278,46.4,274,52.7,269.5,58c-4.9,5.7-9.6,8.6-13.8,8.6c-0.9,0-1.7-0.1-2.6-0.4c-1.9-0.5-4.6-2.7-5.2-6
					c-4.6,5.2-8.8,6.4-11.6,6.4c-1.2,0-2.5-0.2-3.6-0.7c-3.7-1.5-5.5-5.4-6.1-8.8C220.8,63.9,215.2,67,209.6,67z M249.1,38.2
					c-3.1,0-8,2.6-11.5,8.4c-3.6,6-3.1,10-2.7,11.4c0.3,1.2,0.9,2.1,1.6,2.5c0.6,0.3,1.2,0.5,2,0.5l0,0c2,0,4.2-1.2,6-3.3
					c2.4-2.9,3.4-4.4,4.2-6s3.3-6.5,3.8-7.5c0.5-0.9,0.4-2.5-0.2-3.9c-0.5-1.1-1.3-1.9-2.3-2.1C249.7,38.2,249.4,38.2,249.1,38.2z
					 M90.8,44.9c0.6,0,1.1,0,1.5,0c1.9,0,3.3-0.3,5.5-1.1c2.5-0.9,4.6-2.5,5.1-3.9c0.2-0.5,0.2-0.9,0-1.2c-0.2-0.4-0.7-0.6-1.4-0.6
					c-1.6,0-3.8,1-5.3,2.1C94.4,41.5,91.9,43.5,90.8,44.9z M88.4,88.3c11.8,0,16.6-7.4,17.8-9.7c1.8-3.5,2.2-7,1.1-9
					c-0.6-1-1.5-1.5-2.6-1.6c-0.1,0-0.2,0-0.3,0c-1.9,0-3.1,1.9-3.1,3.2c0,0.7,0,1.3,0,1.8c0.1,1.8,0.1,3.3-1.3,6.1
					c-1.4,2.7-5.1,4.6-9.1,4.6c-1.5,0-3.1-0.3-4.4-0.8c-7-2.9-11.9-9.2-17.5-18.5c-3.4-5.5-6.5-8.7-8.7-10.5
					c6.4-0.1,13-3.8,16.7-9.2c4.3-6.5,4.8-15.3,1.3-21.9c-2.1-4-5.6-7.8-10-11c0.2-0.2,1.4-1.4,1.7-1.7c0.6-0.6,0.9-1.2,0.7-1.7
					c-0.2-0.5-0.9-0.8-1.9-0.8c-0.8,0-1.7,0.2-2.2,0.5c-0.2,0.1-0.6,0.2-1,0.4c-0.4,0.1-1,0.3-1.5,0.6c-5.8-3.1-13.5-5-20.7-5.2
					c-0.4,0-0.8,0-1.2,0c-20.4,0-30.5,13.6-33.3,21.7C4.1,38.4,8.5,51.5,19.2,57.4c1,0.6,3.7,1.4,5.9,1.4c1.7,0,2.8-0.5,3.3-1.4
					c0.5-1,0.6-1.8,0.3-2.4c-0.6-1.1-2.3-1.4-4.3-1.7c-1.6-0.3-3.2-0.5-4.3-1.2C15.7,49.5,11,40.9,16.3,28
					C21,16.4,32.4,8.9,45.3,8.9c4.9,0,9.9,1,14.9,3.1c-3.4,3.2-8.5,9.2-13.6,19.9C43.9,37.6,41.8,43.7,40,49
					c-3.1,9.1-5.8,17-10.6,19.2c-1.7,0.8-3.7,1.2-5.7,1.2c-2.4,0-4.6-0.6-6.5-1.7c-1.3-0.8-2.3-1.9-3.1-2.9c-0.9-1.1-1.7-1.9-2.5-2
					c-0.1,0-0.3,0-0.5,0c-1.4,0-3.1,0.9-3.3,2.6c-0.4,2.7,2,4.7,4.4,6.2c2.5,1.6,5.9,2.5,9.7,2.5c4,0,7.9-0.9,11.1-2.7
					c9.6-5.3,14.9-18.2,19.6-29.7c1.3-3.1,2.5-6.1,3.7-8.8c0.2-0.4,0.4-0.8,0.6-1.4c1.7-4,4.8-11.3,8-16.2c10.2,7.6,7,19.7,5.8,23.3
					c-2.5,7.1-8.2,10.9-11.2,11.6c-0.5,0.1-0.9,0.2-1.4,0.2c-1.1,0-1.8-0.4-2.4-0.8c-0.4-0.3-0.9-0.5-1.4-0.5
					c-0.7,0-1.4,0.4-2.3,1.4c-1.4,1.4,0.2,3.6,2.5,6.9c1.2,1.6,2.5,3.5,3.7,5.7c7.5,13,13.9,24.2,28.1,25.3
					C87,88.3,87.7,88.3,88.4,88.3L88.4,88.3z M133.9,14.1c-2.9,0-5.3,2.4-5.3,5.3s2.4,5.3,5.3,5.3s5.3-2.4,5.3-5.3
					S136.8,14.1,133.9,14.1z"/>
			</g>
		</g>
	</g>
</g>
</svg>
