<?xml version="1.0" encoding="utf-8"?>
<!-- Generator: Adobe Illustrator 21.0.2, SVG Export Plug-In . SVG Version: 6.00 Build 0)  -->
<svg version="1.1" id="Layer_1" xmlns="http://www.w3.org/2000/svg" xmlns:xlink="http://www.w3.org/1999/xlink" x="0px" y="0px"
	 viewBox="0 0 212 64" style="enable-background:new 0 0 212 64;" xml:space="preserve">
<style type="text/css">
	.st0{fill:#E73C3E;}
</style>
<g>
	<g>
		<path class="st0" d="M30.9,19.8c-1.8-5.4-4.2-7.8-8.1-7.8c-3.9,0-6.1,2.4-6.1,6.3c0,8.7,24.6,9.4,24.6,27.4
			c0,9.9-6.8,16.5-18.4,16.5c-9,0-15.9-4.9-18.9-16.2L15,43.7c1.3,7,5.3,9.4,8.6,9.4c3.8,0,6.8-2.6,6.8-6.9
			c0-10.9-24.6-11-24.6-27.2c0-9.9,5.9-16.2,17.4-16.2c9.8,0,15.8,5.8,17.8,14L30.9,19.8z"/>
		<path class="st0" d="M82.4,3.7v9.8H69.6v48h-11v-48H45.6V3.7H82.4z"/>
		<path class="st0" d="M86,22.3C86,8,93.6,2.9,104.3,2.9c10.7,0,18.2,5.1,18.2,19.4v20.6c0,14.2-7.5,19.4-18.2,19.4
			C93.6,62.3,86,57.2,86,42.9V22.3z M97.1,44.4c0,6.4,2.8,8.2,7.2,8.2c4.4,0,7.2-1.8,7.2-8.2V20.8c0-6.4-2.8-8.2-7.2-8.2
			c-4.4,0-7.2,1.8-7.2,8.2V44.4z"/>
		<path class="st0" d="M155.4,61.5L145.8,38h-5.3v23.5h-11V3.7h16c13.3,0,19.6,6.4,19.6,17.3c0,7.2-2.6,12.4-8.7,14.7l10.9,25.8
			H155.4z M140.5,28.8h5.7c4.9,0,7.8-2.4,7.8-8s-3-8-7.8-8h-5.7V28.8z"/>
		<path class="st0" d="M188,27l9.4-23.3h11.8l-15.8,34.4v23.4h-11V38.1L166.5,3.7h11.8L188,27z"/>
	</g>
</g>
</svg>
